<?xml version="1.0" encoding="utf-8"?>
<!-- Generator: Adobe Illustrator 16.0.3, SVG Export Plug-In . SVG Version: 6.00 Build 0)  -->
<!DOCTYPE svg PUBLIC "-//W3C//DTD SVG 1.1//EN" "http://www.w3.org/Graphics/SVG/1.1/DTD/svg11.dtd">
<svg version="1.1" id="Capa_2" xmlns="http://www.w3.org/2000/svg" xmlns:xlink="http://www.w3.org/1999/xlink" x="0px" y="0px"
	 width="656.747px" height="145.573px" viewBox="0 0 656.747 145.573" enable-background="new 0 0 656.747 145.573"
	 xml:space="preserve">
<g>
	<g>
		<path fill="none" stroke="#F47621" stroke-width="9.52" stroke-miterlimit="10" d="M355.226,119.141
			c-0.077,0.925-0.899,1.681-1.827,1.681h-35.14c-0.928,0-1.74-0.757-1.806-1.683l-5.073-71.604
			c-0.065-0.925,0.64-1.682,1.567-1.682h46.713c0.928,0,1.623,0.756,1.546,1.681L355.226,119.141z"/>
	</g>
	<g>
		<g>
			<g>
				<g>
					<path fill="#F47621" d="M314.626,18.986c-4.638,0-6.445,3.233-4.016,7.184l21.276,34.605c2.429,3.951,6.405,3.951,8.834,0
						l21.278-34.606c2.43-3.951,0.622-7.184-4.016-7.184H314.626z"/>
				</g>
			</g>
		</g>
	</g>
</g>
<g>
	<path fill="#FFFFFF" d="M40.532,100.253c2.82,0,5.935-2.332,5.935-5.141c0-4.617-6.228-5.262-9.742-6.475
		c-6.198-2.102-11.67-7.163-11.67-14.051c0-8.53,6.952-15.402,15.523-15.402c7.815,0,14.29,5.768,15.339,13.27l-10.144,2.133
		c0-2.777-2.344-5.109-5.134-5.109c-2.837,0-5.18,2.332-5.18,5.14c0,4.557,5.797,5.769,9.326,6.812
		c6.413,1.842,12.071,6.704,12.071,13.747c0,8.529-7.692,15.418-16.249,15.418c-7.861,0-14.969-5.738-16.124-13.271l10.144-2.146
		c0,2.822,3.083,5.123,5.95,5.123L40.532,100.253z"/>
	<path fill="#FFFFFF" d="M87.663,59.63v20.238h16.995V59.63h10.184v50.581h-10.184v-20.27H87.663v20.27H77.479V59.63H87.663z"/>
	<path fill="#FFFFFF" d="M158.638,58.595l23.206,51.616h-11.067l-3.437-7.688h-17.404l-3.438,7.688h-11.035L158.638,58.595z
		 M163.304,93.548l-4.635-10.7l-4.698,10.7H163.304z"/>
	<path fill="#FFFFFF" d="M212.65,59.63v22.372l13.022-22.372h11.791l-15.039,25.698l17.468,24.883h-12.423L212.65,88.998v21.213
		h-10.184V59.63H212.65z"/>
	<path fill="#FFFFFF" d="M291.161,59.504v10.135h-20.432v10.197h15.323v10.136h-15.323v10.197h20.432v10.104h-30.647V59.504H291.161
		z"/>
	<path fill="#FFFFFF" d="M382.034,95.023V59.63h17.846c4.939,0,9.145,1.726,12.612,5.177c3.511,3.473,5.266,7.656,5.266,12.551
		c0,4.937-1.755,9.099-5.266,12.49c-3.511,3.451-7.714,5.176-12.612,5.176h-7.629v15.188h-10.217V95.023z M399.879,69.701h-7.629
		v15.25l7.629,0.031c4.182,0,7.662-3.488,7.662-7.625C407.542,73.227,404.044,69.701,399.879,69.701z"/>
	<path fill="#FFFFFF" d="M480.504,66.783c5.064,5.042,7.598,11.098,7.598,18.167c0,7.092-2.533,13.137-7.598,18.137
		c-5.045,4.979-11.121,7.469-18.225,7.469c-7.127-0.021-13.201-2.512-18.225-7.469c-5.045-5.02-7.566-11.066-7.566-18.137
		c0-7.049,2.521-13.105,7.566-18.167c5.066-5.041,11.141-7.562,18.225-7.562S475.438,61.742,480.504,66.783z M451.338,74.001
		c-3.027,3.054-4.541,6.683-4.541,10.887c0,4.246,1.514,7.877,4.541,10.889c3.006,2.99,6.652,4.486,10.941,4.486
		c4.225,0,7.861-1.496,10.91-4.486c3.047-2.992,4.57-6.621,4.57-10.889c0-4.225-1.523-7.854-4.57-10.887
		c-3.027-3.013-6.664-4.519-10.91-4.519C457.971,69.482,454.322,70.988,451.338,74.001z"/>
	<path fill="#FFFFFF" d="M508.66,59.63h10.217v50.581H508.66V59.63z"/>
	<path fill="#FFFFFF" d="M572.006,87.587V59.504h10.246v51.742l-30.646-29.056v28.083h-10.215v-51.71L572.006,87.587z"/>
	<path fill="#FFFFFF" d="M638.125,59.63v10.071h-12.484v40.509h-10.248V69.701h-12.518V59.63H638.125z"/>
</g>
</svg>
