<?xml version="1.0" encoding="utf-8"?>
<!-- Generator: Adobe Illustrator 16.0.3, SVG Export Plug-In . SVG Version: 6.00 Build 0)  -->
<!DOCTYPE svg PUBLIC "-//W3C//DTD SVG 1.1//EN" "http://www.w3.org/Graphics/SVG/1.1/DTD/svg11.dtd">
<svg version="1.1" id="Capa_1" xmlns="http://www.w3.org/2000/svg" xmlns:xlink="http://www.w3.org/1999/xlink" x="0px" y="0px"
	 width="458.835px" height="554.836px" viewBox="0 0 458.835 554.836" enable-background="new 0 0 458.835 554.836"
	 xml:space="preserve">
<g>
</g>
<g>
</g>
<g>
</g>
<g>
</g>
<g>
</g>
<g>
</g>
<g>
</g>
<g>
</g>
<g>
</g>
<g>
</g>
<g>
</g>
<g>
</g>
<g>
</g>
<g>
</g>
<g>
</g>
<g>
	<path fill="#434953" d="M74.307,527.496c0,5.892-4.773,10.656-10.664,10.656c-5.891,0-10.672-4.767-10.672-10.656
		s4.781-10.671,10.672-10.671C69.533,516.825,74.307,521.605,74.307,527.496z"/>
	<path fill="#434953" d="M415.646,527.496c0,5.892-4.781,10.656-10.688,10.656c-5.875,0-10.656-4.767-10.656-10.656
		s4.781-10.671,10.656-10.671C410.862,516.825,415.646,521.605,415.646,527.496z"/>
	<rect x="42.308" y="36.834" fill="#646C77" width="383.992" height="479.991"/>
	<path fill="#A9B1BB" d="M340.958,228.83c0,5.892-4.766,10.672-10.656,10.672c-5.89,0-10.655-4.78-10.655-10.672
		c0-5.891,4.766-10.672,10.655-10.672C336.192,218.158,340.958,222.939,340.958,228.83z"/>
	<path fill="#A9B1BB" d="M372.958,228.83c0,5.892-4.768,10.672-10.656,10.672c-5.891,0-10.656-4.78-10.656-10.672
		c0-5.891,4.766-10.672,10.656-10.672C368.19,218.158,372.958,222.939,372.958,228.83z"/>
	<path fill="#A9B1BB" d="M404.958,228.83c0,5.892-4.768,10.672-10.656,10.672c-5.891,0-10.656-4.78-10.656-10.672
		c0-5.891,4.766-10.672,10.656-10.672C400.19,218.158,404.958,222.939,404.958,228.83z"/>
	<path fill="#A9B1BB" d="M340.958,260.829c0,5.892-4.766,10.672-10.656,10.672c-5.89,0-10.655-4.781-10.655-10.672
		c0-5.89,4.766-10.671,10.655-10.671C336.192,250.158,340.958,254.939,340.958,260.829z"/>
	<path fill="#A9B1BB" d="M372.958,260.829c0,5.892-4.768,10.672-10.656,10.672c-5.891,0-10.656-4.781-10.656-10.672
		c0-5.89,4.766-10.671,10.656-10.671C368.19,250.158,372.958,254.939,372.958,260.829z"/>
	<path fill="#A9B1BB" d="M404.958,260.829c0,5.892-4.768,10.672-10.656,10.672c-5.891,0-10.656-4.781-10.656-10.672
		c0-5.89,4.766-10.671,10.656-10.671C400.19,250.158,404.958,254.939,404.958,260.829z"/>
	<path fill="#A9B1BB" d="M340.958,292.829c0,5.891-4.766,10.672-10.656,10.672c-5.89,0-10.655-4.781-10.655-10.672
		s4.766-10.672,10.655-10.672C336.192,282.157,340.958,286.938,340.958,292.829z"/>
	<path fill="#A9B1BB" d="M372.958,292.829c0,5.891-4.768,10.672-10.656,10.672c-5.891,0-10.656-4.781-10.656-10.672
		s4.766-10.672,10.656-10.672S372.958,286.938,372.958,292.829z"/>
	<path fill="#A9B1BB" d="M404.958,292.829c0,5.891-4.768,10.672-10.656,10.672c-5.891,0-10.656-4.781-10.656-10.672
		s4.766-10.672,10.656-10.672S404.958,286.938,404.958,292.829z"/>
	<path fill="#47B4D0" d="M394.302,175.503h-64l0,0c-5.89,0-10.655,4.767-10.655,10.656s4.766,10.671,10.655,10.671l0,0h64
		c5.891,0,10.656-4.781,10.656-10.671S400.192,175.503,394.302,175.503z"/>
	<rect x="330.192" y="388.827" fill="#646C77" width="64.219" height="63.998"/>
	<path fill="#A9B1BB" d="M372.958,399.499c0,5.892-4.768,10.656-10.656,10.656c-5.891,0-10.656-4.766-10.656-10.656
		c0-5.89,4.766-10.672,10.656-10.672C368.19,388.827,372.958,393.608,372.958,399.499z"/>
	<path fill="#A9B1BB" d="M106.306,452.825c-11.766,0-21.335-9.562-21.335-21.327s9.57-21.343,21.335-21.343h127.998
		c11.767,0,21.343,9.577,21.343,21.343s-9.576,21.327-21.343,21.327H106.306z"/>
	<path fill="#434953" d="M319.521,378.155v85.342h85.562v-85.342H319.521z M383.737,442.154h-42.873v-42.655h42.873V442.154z"/>
	<path fill="#434953" d="M31.645,26.162v501.334h405.312V26.162H31.645z M287.647,47.505v85.327H52.971V47.505H287.647z
		 M52.971,239.502V154.16h234.675v85.342H52.971z M287.647,260.829v85.326H52.971v-85.326H287.647z M52.971,506.153V367.499h234.675
		v138.654H52.971L52.971,506.153z M415.646,506.153H308.959V47.505h106.687V506.153z"/>
	<rect x="52.972" y="47.505" fill="#F5F6F6" width="234.675" height="319.994"/>
	<g>
		<g>
			<path fill="none" stroke="#EF7621" stroke-width="13.4234" stroke-miterlimit="10" d="M198.53,280.938
				c-0.115,1.379-1.341,2.507-2.725,2.507h-52.41c-1.384,0-2.596-1.129-2.693-2.51l-7.566-106.795
				c-0.098-1.381,0.954-2.51,2.338-2.51h69.671c1.384,0,2.421,1.128,2.306,2.507L198.53,280.938z"/>
		</g>
		<g>
			<g>
				<g>
					<g>
						<path fill="#EF7621" d="M137.976,131.559c-6.917,0-9.613,4.821-5.99,10.715l31.734,51.615c3.623,5.894,9.552,5.894,13.175,0
							l31.736-51.615c3.624-5.894,0.928-10.715-5.99-10.715H137.976z"/>
					</g>
				</g>
			</g>
		</g>
	</g>
</g>
</svg>
